<svg xmlns="http://www.w3.org/2000/svg" viewBox="0 0 8 8">
                    <path
                      class="fill-blue-600 dark:fill-blue-400"
                      d="M40,0 C17.9,0 0,17.9 0,40 C0,59.9 14.6,76.2 33.8,79.4 L33.8,51.5 L23.6,51.5 L23.6,40 L33.8,40 L33.8,31.2 C33.8,21.2 39.8,15.6 48.8,15.6 C53.1,15.6 57.6,16.4 57.6,16.4 L57.6,26 L52.6,26 C47.7,26 46.2,29 46.2,32.1 L46.2,40 L57.1,40 L55.3,51.5 L46.2,51.5 L46.2,79.4 C65.4,76.2 80,59.9 80,40 C80,17.9 62.1,0 40,0 Z"
                    />
                  </svg>